<svg width="98" height="106" viewBox="0 0 98 106" fill="none" xmlns="http://www.w3.org/2000/svg">
<path d="M25.2394 105.307C28.4582 105.142 30.9257 102.398 30.7507 99.1778C30.5738 95.9577 27.8213 93.4812 24.6025 93.6461C21.3827 93.81 18.9152 96.556 19.0902 99.7742C19.2662 102.995 22.0197 105.473 25.2394 105.307ZM33.9662 90.7784C32.6025 89.765 31.0256 89.0765 29.3404 88.8631L23.7471 88.1584C20.8628 87.7947 17.9228 88.5007 15.5962 90.2369C15.0432 90.6506 14.4362 91.0085 13.7793 91.3007C8.8543 93.4934 3.04757 91.1467 1.04453 86.0614C-0.743376 81.5219 1.24628 76.3077 5.59622 74.1251C11.4549 71.183 15.5753 74.9297 17.5943 77.6454C18.7284 79.1689 20.4419 80.1544 22.3249 80.3916L27.0463 80.9875C29.9874 81.3591 32.4512 78.8031 31.9758 75.8775L31.4235 72.4835C30.7725 68.49 28.4813 64.9815 25.1774 62.6365C23.4971 61.4435 22.1032 59.7992 21.1998 57.7821C18.4717 51.6899 21.2713 44.54 27.4536 41.9627C33.1894 39.571 40.2319 42.3236 42.8498 47.9769C44.7469 52.0737 44.1231 56.6712 41.6347 60.0422C39.2471 63.2791 38.2083 67.3188 38.8563 71.2977L39.9048 77.7397C40.182 79.4455 40.8793 81.0626 41.973 82.401C42.2957 82.7941 42.5695 83.2343 42.7866 83.7194C43.744 85.857 43.3147 88.2595 41.8863 89.9193L41.4323 90.389C40.9763 90.8117 40.4448 91.1706 39.8446 91.4373C37.8462 92.3275 35.6104 92.0018 33.9662 90.7784Z" fill="url(#paint0_linear_5216_213)"/>
<path d="M73.4224 11.7241C76.6412 11.5592 79.1087 8.81512 78.9327 5.59401C78.7577 2.37583 76.0042 -0.10169 72.7855 0.0632316C69.5647 0.228151 67.0982 2.97123 67.2742 6.19235C67.4492 9.41248 70.2017 11.889 73.4224 11.7241ZM64.2203 13.7436C65.5303 14.8266 67.072 15.5933 68.7436 15.893L74.2951 16.8827C77.158 17.3933 80.1305 16.8392 82.5424 15.2236C83.116 14.8402 83.7416 14.5127 84.4124 14.2558C89.4434 12.3179 95.1231 14.9583 96.8637 20.1374C98.4176 24.7619 96.1633 29.866 91.7074 31.8252C85.7063 34.4625 81.7806 30.5113 79.9025 27.6958C78.8487 26.1155 77.1871 25.043 75.3186 24.7108L70.6323 23.8739C67.7144 23.3535 65.1212 25.778 65.4467 28.724L65.8257 32.1403C66.27 36.1621 68.3821 39.783 71.5608 42.2924C73.1785 43.5716 74.4853 45.2834 75.2849 47.3434C77.6987 53.5675 74.5375 60.5632 68.2304 62.8201C62.3777 64.9148 55.4847 61.8068 53.1586 56.0285C51.472 51.8388 52.3319 47.2817 54.9889 44.0402C57.5402 40.9318 58.7848 36.9511 58.3405 32.9451L57.6231 26.4584C57.4341 24.7429 56.8191 23.0925 55.7938 21.6994C55.4946 21.2906 55.2423 20.8367 55.0508 20.3418C54.2039 18.1583 54.7538 15.7805 56.2665 14.1972L56.7431 13.75C57.2216 13.3519 57.7708 13.0204 58.3838 12.786C60.4264 11.9987 62.6417 12.439 64.2203 13.7436Z" fill="url(#paint1_linear_5216_213)"/>
<defs>
<linearGradient id="paint0_linear_5216_213" x1="18.9367" y1="105.084" x2="83.6233" y2="10.7976" gradientUnits="userSpaceOnUse">
<stop stop-color="white" stop-opacity="0.652873"/>
<stop offset="0.403152" stop-color="#C7C7C7" stop-opacity="0.779455"/>
<stop offset="0.541007" stop-color="#EBEBEB" stop-opacity="0.692871"/>
<stop offset="0.819808" stop-color="#A4A4A4" stop-opacity="0.645026"/>
<stop offset="1" stop-opacity="0"/>
</linearGradient>
<linearGradient id="paint1_linear_5216_213" x1="18.9367" y1="105.084" x2="83.6233" y2="10.7976" gradientUnits="userSpaceOnUse">
<stop stop-color="white" stop-opacity="0.652873"/>
<stop offset="0.403152" stop-color="#C7C7C7" stop-opacity="0.779455"/>
<stop offset="0.541007" stop-color="#EBEBEB" stop-opacity="0.692871"/>
<stop offset="0.819808" stop-color="#A4A4A4" stop-opacity="0.645026"/>
<stop offset="1" stop-opacity="0"/>
</linearGradient>
</defs>
</svg>
